<mxfile host="app.diagrams.net" modified="2024-04-05T15:52:17.845Z" agent="Mozilla/5.0 (Windows NT 10.0; Win64; x64) AppleWebKit/537.36 (KHTML, like Gecko) Chrome/121.0.0.0 Safari/537.36 OPR/107.0.0.0" etag="1M1fG_n0Mh1jeCRz_FAs" version="24.2.2" type="device">
  <diagram name="PÃ¡gina-1" id="4BAQ9GUI9kAKCa6rDoIa">
    <mxGraphModel dx="2752" dy="934" grid="1" gridSize="10" guides="1" tooltips="1" connect="1" arrows="1" fold="1" page="0" pageScale="1" pageWidth="827" pageHeight="1169" math="0" shadow="0">
      <root>
        <mxCell id="0" />
        <mxCell id="1" parent="0" />
        <mxCell id="MonJqRNqbHhOGK0CBUrv-2" value="Usuario" style="rounded=0;whiteSpace=wrap;html=1;" parent="1" vertex="1">
          <mxGeometry x="-307" y="255" width="120" height="60" as="geometry" />
        </mxCell>
        <mxCell id="MonJqRNqbHhOGK0CBUrv-3" style="edgeStyle=orthogonalEdgeStyle;rounded=0;orthogonalLoop=1;jettySize=auto;html=1;exitX=0.5;exitY=1;exitDx=0;exitDy=0;" parent="1" source="MonJqRNqbHhOGK0CBUrv-2" target="MonJqRNqbHhOGK0CBUrv-2" edge="1">
          <mxGeometry relative="1" as="geometry" />
        </mxCell>
        <mxCell id="MonJqRNqbHhOGK0CBUrv-10" style="edgeStyle=orthogonalEdgeStyle;rounded=0;orthogonalLoop=1;jettySize=auto;html=1;exitX=1;exitY=0.5;exitDx=0;exitDy=0;entryX=0;entryY=0.5;entryDx=0;entryDy=0;endArrow=none;endFill=0;" parent="1" source="MonJqRNqbHhOGK0CBUrv-4" target="MonJqRNqbHhOGK0CBUrv-2" edge="1">
          <mxGeometry relative="1" as="geometry" />
        </mxCell>
        <mxCell id="MonJqRNqbHhOGK0CBUrv-4" value="login" style="ellipse;whiteSpace=wrap;html=1;" parent="1" vertex="1">
          <mxGeometry x="-542" y="180" width="80" height="30" as="geometry" />
        </mxCell>
        <mxCell id="774Z3FmDkCT8_oQ44oAT-26" style="edgeStyle=orthogonalEdgeStyle;rounded=0;orthogonalLoop=1;jettySize=auto;html=1;entryX=0;entryY=0.5;entryDx=0;entryDy=0;endArrow=none;endFill=0;" parent="1" source="MonJqRNqbHhOGK0CBUrv-5" target="MonJqRNqbHhOGK0CBUrv-2" edge="1">
          <mxGeometry relative="1" as="geometry" />
        </mxCell>
        <mxCell id="MonJqRNqbHhOGK0CBUrv-5" value="senha" style="ellipse;whiteSpace=wrap;html=1;" parent="1" vertex="1">
          <mxGeometry x="-542" y="225" width="80" height="30" as="geometry" />
        </mxCell>
        <mxCell id="MonJqRNqbHhOGK0CBUrv-11" style="edgeStyle=orthogonalEdgeStyle;rounded=0;orthogonalLoop=1;jettySize=auto;html=1;exitX=1;exitY=0.5;exitDx=0;exitDy=0;entryX=0;entryY=0.5;entryDx=0;entryDy=0;endArrow=none;endFill=0;" parent="1" source="MonJqRNqbHhOGK0CBUrv-6" target="MonJqRNqbHhOGK0CBUrv-2" edge="1">
          <mxGeometry relative="1" as="geometry" />
        </mxCell>
        <mxCell id="MonJqRNqbHhOGK0CBUrv-6" value="idusuario" style="ellipse;whiteSpace=wrap;html=1;fontStyle=4" parent="1" vertex="1">
          <mxGeometry x="-542" y="270" width="80" height="30" as="geometry" />
        </mxCell>
        <mxCell id="MonJqRNqbHhOGK0CBUrv-14" value="DonoDePet" style="rounded=0;whiteSpace=wrap;html=1;" parent="1" vertex="1">
          <mxGeometry x="-486.8" y="349.37" width="120" height="60" as="geometry" />
        </mxCell>
        <mxCell id="MonJqRNqbHhOGK0CBUrv-24" style="edgeStyle=orthogonalEdgeStyle;rounded=0;orthogonalLoop=1;jettySize=auto;html=1;exitX=0;exitY=0.5;exitDx=0;exitDy=0;entryX=1;entryY=0.5;entryDx=0;entryDy=0;endArrow=none;endFill=0;" parent="1" source="MonJqRNqbHhOGK0CBUrv-18" target="MonJqRNqbHhOGK0CBUrv-14" edge="1">
          <mxGeometry relative="1" as="geometry" />
        </mxCell>
        <mxCell id="MonJqRNqbHhOGK0CBUrv-18" value="email" style="ellipse;whiteSpace=wrap;html=1;" parent="1" vertex="1">
          <mxGeometry x="-314" y="368.13" width="80" height="30" as="geometry" />
        </mxCell>
        <mxCell id="MonJqRNqbHhOGK0CBUrv-26" style="edgeStyle=orthogonalEdgeStyle;rounded=0;orthogonalLoop=1;jettySize=auto;html=1;entryX=1;entryY=0.5;entryDx=0;entryDy=0;endArrow=none;endFill=0;" parent="1" source="774Z3FmDkCT8_oQ44oAT-30" target="MonJqRNqbHhOGK0CBUrv-14" edge="1">
          <mxGeometry relative="1" as="geometry">
            <mxPoint x="-199" y="468" as="sourcePoint" />
          </mxGeometry>
        </mxCell>
        <mxCell id="MonJqRNqbHhOGK0CBUrv-29" value="Pet" style="rounded=0;whiteSpace=wrap;html=1;" parent="1" vertex="1">
          <mxGeometry x="-860" y="482.13" width="120" height="60" as="geometry" />
        </mxCell>
        <mxCell id="MonJqRNqbHhOGK0CBUrv-122" style="edgeStyle=orthogonalEdgeStyle;rounded=0;orthogonalLoop=1;jettySize=auto;html=1;exitX=1;exitY=0.5;exitDx=0;exitDy=0;entryX=0;entryY=0.5;entryDx=0;entryDy=0;endArrow=none;endFill=0;" parent="1" source="MonJqRNqbHhOGK0CBUrv-30" target="MonJqRNqbHhOGK0CBUrv-29" edge="1">
          <mxGeometry relative="1" as="geometry">
            <Array as="points">
              <mxPoint x="-890" y="399.13" />
              <mxPoint x="-890" y="512.13" />
            </Array>
          </mxGeometry>
        </mxCell>
        <mxCell id="MonJqRNqbHhOGK0CBUrv-30" value="nome" style="ellipse;whiteSpace=wrap;html=1;" parent="1" vertex="1">
          <mxGeometry x="-1030" y="384.13" width="80" height="30" as="geometry" />
        </mxCell>
        <mxCell id="MonJqRNqbHhOGK0CBUrv-121" style="edgeStyle=orthogonalEdgeStyle;rounded=0;orthogonalLoop=1;jettySize=auto;html=1;entryX=0;entryY=0.5;entryDx=0;entryDy=0;endArrow=none;endFill=0;" parent="1" source="MonJqRNqbHhOGK0CBUrv-31" target="MonJqRNqbHhOGK0CBUrv-29" edge="1">
          <mxGeometry relative="1" as="geometry">
            <Array as="points">
              <mxPoint x="-890" y="439.13" />
              <mxPoint x="-890" y="512.13" />
            </Array>
          </mxGeometry>
        </mxCell>
        <mxCell id="MonJqRNqbHhOGK0CBUrv-31" value="idade" style="ellipse;whiteSpace=wrap;html=1;" parent="1" vertex="1">
          <mxGeometry x="-1030" y="424.13" width="80" height="30" as="geometry" />
        </mxCell>
        <mxCell id="MonJqRNqbHhOGK0CBUrv-116" value="" style="edgeStyle=orthogonalEdgeStyle;rounded=0;orthogonalLoop=1;jettySize=auto;html=1;endArrow=none;endFill=0;" parent="1" source="MonJqRNqbHhOGK0CBUrv-32" target="MonJqRNqbHhOGK0CBUrv-29" edge="1">
          <mxGeometry relative="1" as="geometry">
            <Array as="points">
              <mxPoint x="-890" y="479.13" />
              <mxPoint x="-890" y="512.13" />
            </Array>
          </mxGeometry>
        </mxCell>
        <mxCell id="MonJqRNqbHhOGK0CBUrv-32" value="raca" style="ellipse;whiteSpace=wrap;html=1;" parent="1" vertex="1">
          <mxGeometry x="-1030" y="464.13" width="80" height="30" as="geometry" />
        </mxCell>
        <mxCell id="MonJqRNqbHhOGK0CBUrv-113" style="edgeStyle=orthogonalEdgeStyle;rounded=0;orthogonalLoop=1;jettySize=auto;html=1;exitX=1;exitY=0.5;exitDx=0;exitDy=0;entryX=0;entryY=0.5;entryDx=0;entryDy=0;endArrow=none;endFill=0;" parent="1" source="MonJqRNqbHhOGK0CBUrv-33" target="MonJqRNqbHhOGK0CBUrv-29" edge="1">
          <mxGeometry relative="1" as="geometry" />
        </mxCell>
        <mxCell id="MonJqRNqbHhOGK0CBUrv-33" value="perfilcomportamental" style="ellipse;whiteSpace=wrap;html=1;" parent="1" vertex="1">
          <mxGeometry x="-1060" y="504.13" width="140" height="40" as="geometry" />
        </mxCell>
        <mxCell id="MonJqRNqbHhOGK0CBUrv-44" value="Passeador" style="rounded=0;whiteSpace=wrap;html=1;" parent="1" vertex="1">
          <mxGeometry x="-485.79999999999995" y="816.88" width="120" height="60" as="geometry" />
        </mxCell>
        <mxCell id="MonJqRNqbHhOGK0CBUrv-73" value="passeio" style="rounded=0;whiteSpace=wrap;html=1;" parent="1" vertex="1">
          <mxGeometry x="-485.8" y="576" width="120" height="60" as="geometry" />
        </mxCell>
        <mxCell id="MonJqRNqbHhOGK0CBUrv-78" style="edgeStyle=orthogonalEdgeStyle;rounded=0;orthogonalLoop=1;jettySize=auto;html=1;exitX=0;exitY=0.5;exitDx=0;exitDy=0;entryX=1;entryY=0.5;entryDx=0;entryDy=0;endArrow=none;endFill=0;" parent="1" source="MonJqRNqbHhOGK0CBUrv-74" target="MonJqRNqbHhOGK0CBUrv-73" edge="1">
          <mxGeometry relative="1" as="geometry">
            <Array as="points">
              <mxPoint x="-316" y="665" />
              <mxPoint x="-316" y="630" />
              <mxPoint x="-366" y="630" />
            </Array>
          </mxGeometry>
        </mxCell>
        <mxCell id="MonJqRNqbHhOGK0CBUrv-74" value="data" style="ellipse;whiteSpace=wrap;html=1;" parent="1" vertex="1">
          <mxGeometry x="-280" y="649.75" width="80" height="30" as="geometry" />
        </mxCell>
        <mxCell id="MonJqRNqbHhOGK0CBUrv-79" style="edgeStyle=orthogonalEdgeStyle;rounded=0;orthogonalLoop=1;jettySize=auto;html=1;exitX=0;exitY=0.5;exitDx=0;exitDy=0;entryX=1;entryY=0.5;entryDx=0;entryDy=0;endArrow=none;endFill=0;" parent="1" source="MonJqRNqbHhOGK0CBUrv-75" target="MonJqRNqbHhOGK0CBUrv-73" edge="1">
          <mxGeometry relative="1" as="geometry">
            <Array as="points">
              <mxPoint x="-316" y="706" />
              <mxPoint x="-316" y="630" />
              <mxPoint x="-366" y="630" />
            </Array>
          </mxGeometry>
        </mxCell>
        <mxCell id="MonJqRNqbHhOGK0CBUrv-75" value="valor" style="ellipse;whiteSpace=wrap;html=1;" parent="1" vertex="1">
          <mxGeometry x="-280" y="691.25" width="80" height="30" as="geometry" />
        </mxCell>
        <mxCell id="MonJqRNqbHhOGK0CBUrv-82" style="edgeStyle=orthogonalEdgeStyle;rounded=0;orthogonalLoop=1;jettySize=auto;html=1;exitX=0;exitY=0.5;exitDx=0;exitDy=0;entryX=1;entryY=0.5;entryDx=0;entryDy=0;endArrow=none;endFill=0;" parent="1" source="MonJqRNqbHhOGK0CBUrv-76" target="MonJqRNqbHhOGK0CBUrv-73" edge="1">
          <mxGeometry relative="1" as="geometry">
            <Array as="points">
              <mxPoint x="-316" y="745" />
              <mxPoint x="-316" y="630" />
              <mxPoint x="-366" y="630" />
            </Array>
          </mxGeometry>
        </mxCell>
        <mxCell id="MonJqRNqbHhOGK0CBUrv-76" value="horario" style="ellipse;whiteSpace=wrap;html=1;" parent="1" vertex="1">
          <mxGeometry x="-280" y="730.25" width="80" height="30" as="geometry" />
        </mxCell>
        <mxCell id="MonJqRNqbHhOGK0CBUrv-89" style="edgeStyle=orthogonalEdgeStyle;rounded=0;orthogonalLoop=1;jettySize=auto;html=1;exitX=0;exitY=0.5;exitDx=0;exitDy=0;entryX=1;entryY=0.5;entryDx=0;entryDy=0;endArrow=none;endFill=0;" parent="1" source="MonJqRNqbHhOGK0CBUrv-77" target="MonJqRNqbHhOGK0CBUrv-73" edge="1">
          <mxGeometry relative="1" as="geometry">
            <Array as="points">
              <mxPoint x="-316" y="789" />
              <mxPoint x="-316" y="630" />
              <mxPoint x="-366" y="630" />
            </Array>
          </mxGeometry>
        </mxCell>
        <mxCell id="MonJqRNqbHhOGK0CBUrv-77" value="observacoes" style="ellipse;whiteSpace=wrap;html=1;" parent="1" vertex="1">
          <mxGeometry x="-280" y="774.25" width="80" height="30" as="geometry" />
        </mxCell>
        <mxCell id="MonJqRNqbHhOGK0CBUrv-97" value="Possui" style="rhombus;whiteSpace=wrap;html=1;direction=south;" parent="1" vertex="1">
          <mxGeometry x="-660" y="404.63" width="80" height="80" as="geometry" />
        </mxCell>
        <mxCell id="MonJqRNqbHhOGK0CBUrv-104" value="" style="endArrow=none;html=1;rounded=0;entryX=0.5;entryY=1;entryDx=0;entryDy=0;exitX=1;exitY=0.5;exitDx=0;exitDy=0;" parent="1" source="MonJqRNqbHhOGK0CBUrv-29" target="MonJqRNqbHhOGK0CBUrv-97" edge="1">
          <mxGeometry relative="1" as="geometry">
            <mxPoint x="-620" y="480" as="sourcePoint" />
            <mxPoint x="-570" y="467.33000000000004" as="targetPoint" />
          </mxGeometry>
        </mxCell>
        <mxCell id="MonJqRNqbHhOGK0CBUrv-105" value="1" style="resizable=0;html=1;whiteSpace=wrap;align=right;verticalAlign=bottom;" parent="MonJqRNqbHhOGK0CBUrv-104" connectable="0" vertex="1">
          <mxGeometry x="1" relative="1" as="geometry">
            <mxPoint x="87" y="-8" as="offset" />
          </mxGeometry>
        </mxCell>
        <mxCell id="MonJqRNqbHhOGK0CBUrv-128" value="" style="endArrow=none;html=1;rounded=0;exitX=0;exitY=0;exitDx=0;exitDy=0;entryX=0.5;entryY=0;entryDx=0;entryDy=0;" parent="1" source="MonJqRNqbHhOGK0CBUrv-14" target="MonJqRNqbHhOGK0CBUrv-97" edge="1">
          <mxGeometry relative="1" as="geometry">
            <mxPoint x="-457.5" y="486.48" as="sourcePoint" />
            <mxPoint x="-497.5" y="486" as="targetPoint" />
          </mxGeometry>
        </mxCell>
        <mxCell id="MonJqRNqbHhOGK0CBUrv-129" value="N" style="resizable=0;html=1;whiteSpace=wrap;align=right;verticalAlign=bottom;" parent="MonJqRNqbHhOGK0CBUrv-128" connectable="0" vertex="1">
          <mxGeometry x="1" relative="1" as="geometry">
            <mxPoint x="-74" y="-7" as="offset" />
          </mxGeometry>
        </mxCell>
        <mxCell id="MonJqRNqbHhOGK0CBUrv-168" value="agenda" style="rhombus;whiteSpace=wrap;html=1;" parent="1" vertex="1">
          <mxGeometry x="-466.8" y="458.25" width="80" height="80" as="geometry" />
        </mxCell>
        <mxCell id="MonJqRNqbHhOGK0CBUrv-173" value="" style="endArrow=none;html=1;rounded=0;exitX=0.5;exitY=1;exitDx=0;exitDy=0;entryX=0.5;entryY=0;entryDx=0;entryDy=0;" parent="1" source="MonJqRNqbHhOGK0CBUrv-14" target="MonJqRNqbHhOGK0CBUrv-168" edge="1">
          <mxGeometry relative="1" as="geometry">
            <mxPoint x="-563.8" y="498.25" as="sourcePoint" />
            <mxPoint x="-433.8" y="458.25" as="targetPoint" />
          </mxGeometry>
        </mxCell>
        <mxCell id="MonJqRNqbHhOGK0CBUrv-174" value="1" style="resizable=0;html=1;whiteSpace=wrap;align=right;verticalAlign=bottom;" parent="MonJqRNqbHhOGK0CBUrv-173" connectable="0" vertex="1">
          <mxGeometry x="1" relative="1" as="geometry">
            <mxPoint x="-3" y="1" as="offset" />
          </mxGeometry>
        </mxCell>
        <mxCell id="MonJqRNqbHhOGK0CBUrv-175" value="" style="endArrow=none;html=1;rounded=0;exitX=0.5;exitY=1;exitDx=0;exitDy=0;entryX=0.5;entryY=0;entryDx=0;entryDy=0;" parent="1" source="MonJqRNqbHhOGK0CBUrv-168" target="MonJqRNqbHhOGK0CBUrv-73" edge="1">
          <mxGeometry relative="1" as="geometry">
            <mxPoint x="-673.8" y="588.25" as="sourcePoint" />
            <mxPoint x="-513.8" y="588.25" as="targetPoint" />
          </mxGeometry>
        </mxCell>
        <mxCell id="MonJqRNqbHhOGK0CBUrv-176" value="N" style="resizable=0;html=1;whiteSpace=wrap;align=right;verticalAlign=bottom;" parent="MonJqRNqbHhOGK0CBUrv-175" connectable="0" vertex="1">
          <mxGeometry x="1" relative="1" as="geometry">
            <mxPoint x="-3" y="-22" as="offset" />
          </mxGeometry>
        </mxCell>
        <mxCell id="MonJqRNqbHhOGK0CBUrv-179" value="aceita" style="rhombus;whiteSpace=wrap;html=1;" parent="1" vertex="1">
          <mxGeometry x="-475.8" y="691.25" width="100" height="80" as="geometry" />
        </mxCell>
        <mxCell id="MonJqRNqbHhOGK0CBUrv-181" value="" style="endArrow=none;html=1;rounded=0;exitX=0.5;exitY=0;exitDx=0;exitDy=0;entryX=0.5;entryY=1;entryDx=0;entryDy=0;" parent="1" source="MonJqRNqbHhOGK0CBUrv-44" target="MonJqRNqbHhOGK0CBUrv-179" edge="1">
          <mxGeometry relative="1" as="geometry">
            <mxPoint x="-493.79999999999995" y="758.75" as="sourcePoint" />
            <mxPoint x="-333.8" y="758.75" as="targetPoint" />
          </mxGeometry>
        </mxCell>
        <mxCell id="MonJqRNqbHhOGK0CBUrv-182" value="1" style="resizable=0;html=1;whiteSpace=wrap;align=right;verticalAlign=bottom;" parent="MonJqRNqbHhOGK0CBUrv-181" connectable="0" vertex="1">
          <mxGeometry x="1" relative="1" as="geometry">
            <mxPoint x="-2" y="16" as="offset" />
          </mxGeometry>
        </mxCell>
        <mxCell id="MonJqRNqbHhOGK0CBUrv-183" value="" style="endArrow=none;html=1;rounded=0;exitX=0.5;exitY=1;exitDx=0;exitDy=0;entryX=0.5;entryY=0;entryDx=0;entryDy=0;" parent="1" source="MonJqRNqbHhOGK0CBUrv-73" target="MonJqRNqbHhOGK0CBUrv-179" edge="1">
          <mxGeometry relative="1" as="geometry">
            <mxPoint x="-493.8" y="658.25" as="sourcePoint" />
            <mxPoint x="-333.8" y="658.25" as="targetPoint" />
          </mxGeometry>
        </mxCell>
        <mxCell id="MonJqRNqbHhOGK0CBUrv-184" value="N" style="resizable=0;html=1;whiteSpace=wrap;align=right;verticalAlign=bottom;" parent="MonJqRNqbHhOGK0CBUrv-183" connectable="0" vertex="1">
          <mxGeometry x="1" relative="1" as="geometry">
            <mxPoint x="-4" y="4" as="offset" />
          </mxGeometry>
        </mxCell>
        <mxCell id="MonJqRNqbHhOGK0CBUrv-185" value="realiza" style="rhombus;whiteSpace=wrap;html=1;" parent="1" vertex="1">
          <mxGeometry x="-677" y="636" width="80" height="80" as="geometry" />
        </mxCell>
        <mxCell id="MonJqRNqbHhOGK0CBUrv-189" value="" style="endArrow=none;html=1;rounded=0;exitX=0.5;exitY=0;exitDx=0;exitDy=0;entryX=0;entryY=1;entryDx=0;entryDy=0;" parent="1" source="MonJqRNqbHhOGK0CBUrv-185" target="MonJqRNqbHhOGK0CBUrv-14" edge="1">
          <mxGeometry relative="1" as="geometry">
            <mxPoint x="-620" y="590" as="sourcePoint" />
            <mxPoint x="-460" y="590" as="targetPoint" />
          </mxGeometry>
        </mxCell>
        <mxCell id="MonJqRNqbHhOGK0CBUrv-190" value="1" style="resizable=0;html=1;whiteSpace=wrap;align=right;verticalAlign=bottom;" parent="MonJqRNqbHhOGK0CBUrv-189" connectable="0" vertex="1">
          <mxGeometry x="1" relative="1" as="geometry">
            <mxPoint x="-153" y="227" as="offset" />
          </mxGeometry>
        </mxCell>
        <mxCell id="MonJqRNqbHhOGK0CBUrv-265" style="edgeStyle=orthogonalEdgeStyle;rounded=0;orthogonalLoop=1;jettySize=auto;html=1;exitX=0;exitY=0.5;exitDx=0;exitDy=0;entryX=1;entryY=0.5;entryDx=0;entryDy=0;endArrow=none;endFill=0;" parent="1" source="MonJqRNqbHhOGK0CBUrv-201" target="MonJqRNqbHhOGK0CBUrv-14" edge="1">
          <mxGeometry relative="1" as="geometry" />
        </mxCell>
        <mxCell id="MonJqRNqbHhOGK0CBUrv-201" value="cpfdono" style="ellipse;whiteSpace=wrap;html=1;fontStyle=4" parent="1" vertex="1">
          <mxGeometry x="-320" y="495.63" width="90" height="34" as="geometry" />
        </mxCell>
        <mxCell id="MonJqRNqbHhOGK0CBUrv-204" style="edgeStyle=orthogonalEdgeStyle;rounded=0;orthogonalLoop=1;jettySize=auto;html=1;entryX=0;entryY=0.5;entryDx=0;entryDy=0;endArrow=none;endFill=0;" parent="1" source="MonJqRNqbHhOGK0CBUrv-203" target="MonJqRNqbHhOGK0CBUrv-29" edge="1">
          <mxGeometry relative="1" as="geometry">
            <Array as="points">
              <mxPoint x="-890" y="351.13" />
              <mxPoint x="-890" y="512.13" />
            </Array>
          </mxGeometry>
        </mxCell>
        <mxCell id="MonJqRNqbHhOGK0CBUrv-203" value="idpet" style="ellipse;whiteSpace=wrap;html=1;fontStyle=4" parent="1" vertex="1">
          <mxGeometry x="-1035" y="334.13" width="90" height="34" as="geometry" />
        </mxCell>
        <mxCell id="MonJqRNqbHhOGK0CBUrv-206" value="AvaliaÃ§ao" style="rounded=0;whiteSpace=wrap;html=1;" parent="1" vertex="1">
          <mxGeometry x="-760" y="816.75" width="120" height="60" as="geometry" />
        </mxCell>
        <mxCell id="MonJqRNqbHhOGK0CBUrv-208" value="" style="endArrow=none;html=1;rounded=0;entryX=0.5;entryY=0;entryDx=0;entryDy=0;exitX=0.5;exitY=1;exitDx=0;exitDy=0;" parent="1" source="MonJqRNqbHhOGK0CBUrv-185" target="MonJqRNqbHhOGK0CBUrv-206" edge="1">
          <mxGeometry relative="1" as="geometry">
            <mxPoint x="-1030" y="860.5" as="sourcePoint" />
            <mxPoint x="-870" y="860.5" as="targetPoint" />
          </mxGeometry>
        </mxCell>
        <mxCell id="MonJqRNqbHhOGK0CBUrv-209" value="N" style="resizable=0;html=1;whiteSpace=wrap;align=right;verticalAlign=bottom;" parent="MonJqRNqbHhOGK0CBUrv-208" connectable="0" vertex="1">
          <mxGeometry x="1" relative="1" as="geometry">
            <mxPoint x="50" y="-87" as="offset" />
          </mxGeometry>
        </mxCell>
        <mxCell id="MonJqRNqbHhOGK0CBUrv-210" value="possui" style="rhombus;whiteSpace=wrap;html=1;" parent="1" vertex="1">
          <mxGeometry x="-590" y="814.75" width="60" height="64" as="geometry" />
        </mxCell>
        <mxCell id="MonJqRNqbHhOGK0CBUrv-213" value="" style="endArrow=none;html=1;rounded=0;exitX=1;exitY=0.5;exitDx=0;exitDy=0;entryX=0;entryY=0.5;entryDx=0;entryDy=0;" parent="1" source="MonJqRNqbHhOGK0CBUrv-206" target="MonJqRNqbHhOGK0CBUrv-210" edge="1">
          <mxGeometry relative="1" as="geometry">
            <mxPoint x="-573" y="993.5699999999999" as="sourcePoint" />
            <mxPoint x="-648.8000000000002" y="846.75" as="targetPoint" />
          </mxGeometry>
        </mxCell>
        <mxCell id="MonJqRNqbHhOGK0CBUrv-214" value="N" style="resizable=0;html=1;whiteSpace=wrap;align=right;verticalAlign=bottom;" parent="MonJqRNqbHhOGK0CBUrv-213" connectable="0" vertex="1">
          <mxGeometry x="1" relative="1" as="geometry">
            <mxPoint x="-5" as="offset" />
          </mxGeometry>
        </mxCell>
        <mxCell id="9aSvV8CmTxXtGBdBaeeX-5" style="edgeStyle=orthogonalEdgeStyle;rounded=0;orthogonalLoop=1;jettySize=auto;html=1;entryX=0.25;entryY=1;entryDx=0;entryDy=0;endArrow=none;endFill=0;" edge="1" parent="1" source="MonJqRNqbHhOGK0CBUrv-237" target="MonJqRNqbHhOGK0CBUrv-44">
          <mxGeometry relative="1" as="geometry">
            <Array as="points">
              <mxPoint x="-456" y="923.5" />
              <mxPoint x="-456" y="900.5" />
              <mxPoint x="-456" y="900.5" />
            </Array>
          </mxGeometry>
        </mxCell>
        <mxCell id="MonJqRNqbHhOGK0CBUrv-237" value="email" style="ellipse;whiteSpace=wrap;html=1;" parent="1" vertex="1">
          <mxGeometry x="-556.8" y="908.75" width="80" height="30" as="geometry" />
        </mxCell>
        <mxCell id="MonJqRNqbHhOGK0CBUrv-250" style="edgeStyle=orthogonalEdgeStyle;rounded=0;orthogonalLoop=1;jettySize=auto;html=1;exitX=1;exitY=0.5;exitDx=0;exitDy=0;entryX=0;entryY=0.5;entryDx=0;entryDy=0;endArrow=none;endFill=0;" parent="1" source="MonJqRNqbHhOGK0CBUrv-245" target="MonJqRNqbHhOGK0CBUrv-206" edge="1">
          <mxGeometry relative="1" as="geometry">
            <Array as="points">
              <mxPoint x="-783" y="803.75" />
              <mxPoint x="-783" y="846.75" />
            </Array>
          </mxGeometry>
        </mxCell>
        <mxCell id="MonJqRNqbHhOGK0CBUrv-245" value="nota" style="ellipse;whiteSpace=wrap;html=1;" parent="1" vertex="1">
          <mxGeometry x="-888" y="786.75" width="80" height="30" as="geometry" />
        </mxCell>
        <mxCell id="MonJqRNqbHhOGK0CBUrv-248" style="edgeStyle=orthogonalEdgeStyle;rounded=0;orthogonalLoop=1;jettySize=auto;html=1;exitX=1;exitY=0.5;exitDx=0;exitDy=0;entryX=0;entryY=0.5;entryDx=0;entryDy=0;endArrow=none;endFill=0;" parent="1" source="MonJqRNqbHhOGK0CBUrv-246" target="MonJqRNqbHhOGK0CBUrv-206" edge="1">
          <mxGeometry relative="1" as="geometry" />
        </mxCell>
        <mxCell id="MonJqRNqbHhOGK0CBUrv-246" value="feedback" style="ellipse;whiteSpace=wrap;html=1;" parent="1" vertex="1">
          <mxGeometry x="-888" y="831.75" width="80" height="30" as="geometry" />
        </mxCell>
        <mxCell id="MonJqRNqbHhOGK0CBUrv-251" value="e" style="rhombus;whiteSpace=wrap;html=1;" parent="1" vertex="1">
          <mxGeometry x="-183" y="314.13" width="68" height="70" as="geometry" />
        </mxCell>
        <mxCell id="MonJqRNqbHhOGK0CBUrv-252" value="e" style="rhombus;whiteSpace=wrap;html=1;" parent="1" vertex="1">
          <mxGeometry x="-115" y="251" width="70" height="68" as="geometry" />
        </mxCell>
        <mxCell id="MonJqRNqbHhOGK0CBUrv-254" value="" style="endArrow=none;html=1;rounded=0;entryX=0.5;entryY=0;entryDx=0;entryDy=0;exitX=1;exitY=1;exitDx=0;exitDy=0;" parent="1" source="MonJqRNqbHhOGK0CBUrv-2" target="MonJqRNqbHhOGK0CBUrv-251" edge="1">
          <mxGeometry relative="1" as="geometry">
            <mxPoint x="-190" y="314" as="sourcePoint" />
            <mxPoint x="-162" y="344" as="targetPoint" />
          </mxGeometry>
        </mxCell>
        <mxCell id="MonJqRNqbHhOGK0CBUrv-255" value="1" style="resizable=0;html=1;whiteSpace=wrap;align=right;verticalAlign=bottom;" parent="MonJqRNqbHhOGK0CBUrv-254" connectable="0" vertex="1">
          <mxGeometry x="1" relative="1" as="geometry">
            <mxPoint x="-4" y="2" as="offset" />
          </mxGeometry>
        </mxCell>
        <mxCell id="MonJqRNqbHhOGK0CBUrv-256" value="" style="endArrow=none;html=1;rounded=0;exitX=1;exitY=0;exitDx=0;exitDy=0;entryX=0;entryY=0.5;entryDx=0;entryDy=0;" parent="1" source="MonJqRNqbHhOGK0CBUrv-14" target="MonJqRNqbHhOGK0CBUrv-251" edge="1">
          <mxGeometry relative="1" as="geometry">
            <mxPoint x="-15" y="460" as="sourcePoint" />
            <mxPoint x="145" y="460" as="targetPoint" />
            <Array as="points" />
          </mxGeometry>
        </mxCell>
        <mxCell id="MonJqRNqbHhOGK0CBUrv-257" value="1" style="resizable=0;html=1;whiteSpace=wrap;align=right;verticalAlign=bottom;" parent="MonJqRNqbHhOGK0CBUrv-256" connectable="0" vertex="1">
          <mxGeometry x="1" relative="1" as="geometry">
            <mxPoint x="-25" as="offset" />
          </mxGeometry>
        </mxCell>
        <mxCell id="MonJqRNqbHhOGK0CBUrv-260" value="" style="endArrow=none;html=1;rounded=0;exitX=1;exitY=1;exitDx=0;exitDy=0;entryX=0.5;entryY=1;entryDx=0;entryDy=0;" parent="1" source="MonJqRNqbHhOGK0CBUrv-44" target="MonJqRNqbHhOGK0CBUrv-252" edge="1">
          <mxGeometry relative="1" as="geometry">
            <mxPoint x="-260" y="810" as="sourcePoint" />
            <mxPoint x="-100" y="810" as="targetPoint" />
            <Array as="points">
              <mxPoint x="-80" y="877" />
              <mxPoint x="-80" y="610" />
            </Array>
          </mxGeometry>
        </mxCell>
        <mxCell id="MonJqRNqbHhOGK0CBUrv-261" value="1" style="resizable=0;html=1;whiteSpace=wrap;align=right;verticalAlign=bottom;" parent="MonJqRNqbHhOGK0CBUrv-260" connectable="0" vertex="1">
          <mxGeometry x="1" relative="1" as="geometry">
            <mxPoint x="-4" y="18" as="offset" />
          </mxGeometry>
        </mxCell>
        <mxCell id="MonJqRNqbHhOGK0CBUrv-263" value="" style="endArrow=none;html=1;rounded=0;entryX=0;entryY=0.5;entryDx=0;entryDy=0;exitX=1;exitY=0.5;exitDx=0;exitDy=0;" parent="1" source="MonJqRNqbHhOGK0CBUrv-2" target="MonJqRNqbHhOGK0CBUrv-252" edge="1">
          <mxGeometry relative="1" as="geometry">
            <mxPoint x="-170" y="285" as="sourcePoint" />
            <mxPoint x="-215" y="320" as="targetPoint" />
          </mxGeometry>
        </mxCell>
        <mxCell id="MonJqRNqbHhOGK0CBUrv-264" value="1" style="resizable=0;html=1;whiteSpace=wrap;align=right;verticalAlign=bottom;" parent="MonJqRNqbHhOGK0CBUrv-263" connectable="0" vertex="1">
          <mxGeometry x="1" relative="1" as="geometry" />
        </mxCell>
        <mxCell id="MonJqRNqbHhOGK0CBUrv-266" value="cpfpasseador" style="ellipse;whiteSpace=wrap;html=1;fontStyle=4" parent="1" vertex="1">
          <mxGeometry x="-360" y="908.75" width="80" height="30" as="geometry" />
        </mxCell>
        <mxCell id="774Z3FmDkCT8_oQ44oAT-3" style="edgeStyle=orthogonalEdgeStyle;rounded=0;orthogonalLoop=1;jettySize=auto;html=1;exitX=0;exitY=0.5;exitDx=0;exitDy=0;entryX=1;entryY=0.5;entryDx=0;entryDy=0;endArrow=none;endFill=0;" parent="1" source="774Z3FmDkCT8_oQ44oAT-34" target="MonJqRNqbHhOGK0CBUrv-14" edge="1">
          <mxGeometry relative="1" as="geometry">
            <mxPoint x="-196" y="550" as="sourcePoint" />
          </mxGeometry>
        </mxCell>
        <mxCell id="774Z3FmDkCT8_oQ44oAT-6" style="edgeStyle=orthogonalEdgeStyle;rounded=0;orthogonalLoop=1;jettySize=auto;html=1;exitX=0;exitY=0.5;exitDx=0;exitDy=0;entryX=1;entryY=0.5;entryDx=0;entryDy=0;endArrow=none;endFill=0;" parent="1" source="774Z3FmDkCT8_oQ44oAT-5" target="MonJqRNqbHhOGK0CBUrv-73" edge="1">
          <mxGeometry relative="1" as="geometry">
            <Array as="points">
              <mxPoint x="-316" y="831" />
              <mxPoint x="-316" y="630" />
              <mxPoint x="-366" y="630" />
            </Array>
          </mxGeometry>
        </mxCell>
        <mxCell id="774Z3FmDkCT8_oQ44oAT-5" value="idpasseio" style="ellipse;whiteSpace=wrap;html=1;fontStyle=4" parent="1" vertex="1">
          <mxGeometry x="-280" y="816.25" width="80" height="30" as="geometry" />
        </mxCell>
        <mxCell id="774Z3FmDkCT8_oQ44oAT-8" style="edgeStyle=orthogonalEdgeStyle;rounded=0;orthogonalLoop=1;jettySize=auto;html=1;exitX=1;exitY=0.5;exitDx=0;exitDy=0;entryX=0;entryY=0.5;entryDx=0;entryDy=0;endArrow=none;endFill=0;" parent="1" source="774Z3FmDkCT8_oQ44oAT-7" target="MonJqRNqbHhOGK0CBUrv-206" edge="1">
          <mxGeometry relative="1" as="geometry" />
        </mxCell>
        <mxCell id="774Z3FmDkCT8_oQ44oAT-7" value="idavaliacao" style="ellipse;whiteSpace=wrap;html=1;fontStyle=4" parent="1" vertex="1">
          <mxGeometry x="-888" y="878.75" width="80" height="30" as="geometry" />
        </mxCell>
        <mxCell id="774Z3FmDkCT8_oQ44oAT-30" value="endereco" style="ellipse;whiteSpace=wrap;html=1;" parent="1" vertex="1">
          <mxGeometry x="-314" y="408.13" width="80" height="30" as="geometry" />
        </mxCell>
        <mxCell id="774Z3FmDkCT8_oQ44oAT-31" value="telefone" style="ellipse;shape=doubleEllipse;margin=3;whiteSpace=wrap;html=1;align=center;" parent="1" vertex="1">
          <mxGeometry x="-559.8" y="952.5" width="86" height="34" as="geometry" />
        </mxCell>
        <mxCell id="774Z3FmDkCT8_oQ44oAT-34" value="telefone" style="ellipse;shape=doubleEllipse;margin=3;whiteSpace=wrap;html=1;align=center;" parent="1" vertex="1">
          <mxGeometry x="-317" y="450.63" width="86" height="34" as="geometry" />
        </mxCell>
        <mxCell id="774Z3FmDkCT8_oQ44oAT-71" value="" style="endArrow=none;html=1;rounded=0;exitX=1;exitY=0.5;exitDx=0;exitDy=0;entryX=0;entryY=0.5;entryDx=0;entryDy=0;" parent="1" source="MonJqRNqbHhOGK0CBUrv-210" target="MonJqRNqbHhOGK0CBUrv-44" edge="1">
          <mxGeometry relative="1" as="geometry">
            <mxPoint x="-573.3" y="884.75" as="sourcePoint" />
            <mxPoint x="-538.3" y="884.75" as="targetPoint" />
          </mxGeometry>
        </mxCell>
        <mxCell id="774Z3FmDkCT8_oQ44oAT-72" value="1" style="resizable=0;html=1;whiteSpace=wrap;align=right;verticalAlign=bottom;" parent="774Z3FmDkCT8_oQ44oAT-71" connectable="0" vertex="1">
          <mxGeometry x="1" relative="1" as="geometry">
            <mxPoint x="-25" as="offset" />
          </mxGeometry>
        </mxCell>
        <mxCell id="774Z3FmDkCT8_oQ44oAT-76" style="edgeStyle=orthogonalEdgeStyle;rounded=0;orthogonalLoop=1;jettySize=auto;html=1;entryX=0;entryY=0.5;entryDx=0;entryDy=0;endArrow=none;endFill=0;" parent="1" edge="1">
          <mxGeometry relative="1" as="geometry">
            <Array as="points">
              <mxPoint x="-890" y="566.13" />
              <mxPoint x="-890" y="513.13" />
              <mxPoint x="-860" y="513.13" />
            </Array>
            <mxPoint x="-950.000006277021" y="566.1384033613444" as="sourcePoint" />
            <mxPoint x="-860" y="504.13" as="targetPoint" />
          </mxGeometry>
        </mxCell>
        <mxCell id="774Z3FmDkCT8_oQ44oAT-74" value="foto" style="ellipse;whiteSpace=wrap;html=1;" parent="1" vertex="1">
          <mxGeometry x="-1030" y="559.13" width="80" height="30" as="geometry" />
        </mxCell>
        <mxCell id="9aSvV8CmTxXtGBdBaeeX-4" style="edgeStyle=orthogonalEdgeStyle;rounded=0;orthogonalLoop=1;jettySize=auto;html=1;entryX=0.75;entryY=1;entryDx=0;entryDy=0;endArrow=none;endFill=0;" edge="1" parent="1" source="774Z3FmDkCT8_oQ44oAT-77" target="MonJqRNqbHhOGK0CBUrv-44">
          <mxGeometry relative="1" as="geometry" />
        </mxCell>
        <mxCell id="774Z3FmDkCT8_oQ44oAT-77" value="foto" style="ellipse;whiteSpace=wrap;html=1;" parent="1" vertex="1">
          <mxGeometry x="-360" y="956.5" width="80" height="30" as="geometry" />
        </mxCell>
        <mxCell id="774Z3FmDkCT8_oQ44oAT-80" style="edgeStyle=orthogonalEdgeStyle;rounded=0;orthogonalLoop=1;jettySize=auto;html=1;entryX=1;entryY=0.5;entryDx=0;entryDy=0;endArrow=none;endFill=0;" parent="1" source="774Z3FmDkCT8_oQ44oAT-79" target="MonJqRNqbHhOGK0CBUrv-14" edge="1">
          <mxGeometry relative="1" as="geometry" />
        </mxCell>
        <mxCell id="774Z3FmDkCT8_oQ44oAT-79" value="foto" style="ellipse;whiteSpace=wrap;html=1;" parent="1" vertex="1">
          <mxGeometry x="-317" y="543.13" width="90" height="30" as="geometry" />
        </mxCell>
        <mxCell id="tEQJeWXn0lhhpa4tf6Mg-1" value="Vacina" style="rounded=0;whiteSpace=wrap;html=1;" parent="1" vertex="1">
          <mxGeometry x="-990" y="647.63" width="120" height="60" as="geometry" />
        </mxCell>
        <mxCell id="tEQJeWXn0lhhpa4tf6Mg-9" style="edgeStyle=orthogonalEdgeStyle;rounded=0;orthogonalLoop=1;jettySize=auto;html=1;exitX=1;exitY=0.5;exitDx=0;exitDy=0;entryX=0;entryY=0.5;entryDx=0;entryDy=0;endArrow=none;endFill=0;" parent="1" source="tEQJeWXn0lhhpa4tf6Mg-2" target="tEQJeWXn0lhhpa4tf6Mg-1" edge="1">
          <mxGeometry relative="1" as="geometry" />
        </mxCell>
        <mxCell id="tEQJeWXn0lhhpa4tf6Mg-2" value="nome" style="ellipse;whiteSpace=wrap;html=1;" parent="1" vertex="1">
          <mxGeometry x="-1135" y="610.63" width="100" height="37" as="geometry" />
        </mxCell>
        <mxCell id="tEQJeWXn0lhhpa4tf6Mg-5" style="edgeStyle=orthogonalEdgeStyle;rounded=0;orthogonalLoop=1;jettySize=auto;html=1;exitX=0.5;exitY=1;exitDx=0;exitDy=0;" parent="1" source="tEQJeWXn0lhhpa4tf6Mg-2" target="tEQJeWXn0lhhpa4tf6Mg-2" edge="1">
          <mxGeometry relative="1" as="geometry" />
        </mxCell>
        <mxCell id="tEQJeWXn0lhhpa4tf6Mg-10" value="tem" style="rhombus;whiteSpace=wrap;html=1;" parent="1" vertex="1">
          <mxGeometry x="-840" y="637.63" width="80" height="80" as="geometry" />
        </mxCell>
        <mxCell id="tEQJeWXn0lhhpa4tf6Mg-12" value="" style="endArrow=none;html=1;rounded=0;exitX=1;exitY=0.5;exitDx=0;exitDy=0;entryX=0;entryY=0.5;entryDx=0;entryDy=0;" parent="1" source="tEQJeWXn0lhhpa4tf6Mg-1" target="tEQJeWXn0lhhpa4tf6Mg-10" edge="1">
          <mxGeometry relative="1" as="geometry">
            <mxPoint x="-1150" y="853.63" as="sourcePoint" />
            <mxPoint x="-990" y="853.63" as="targetPoint" />
          </mxGeometry>
        </mxCell>
        <mxCell id="tEQJeWXn0lhhpa4tf6Mg-13" value="N" style="resizable=0;html=1;whiteSpace=wrap;align=right;verticalAlign=bottom;" parent="tEQJeWXn0lhhpa4tf6Mg-12" connectable="0" vertex="1">
          <mxGeometry x="1" relative="1" as="geometry">
            <mxPoint x="-6" as="offset" />
          </mxGeometry>
        </mxCell>
        <mxCell id="tEQJeWXn0lhhpa4tf6Mg-14" value="" style="endArrow=none;html=1;rounded=0;exitX=0.5;exitY=1;exitDx=0;exitDy=0;entryX=0.5;entryY=0;entryDx=0;entryDy=0;" parent="1" source="MonJqRNqbHhOGK0CBUrv-29" target="tEQJeWXn0lhhpa4tf6Mg-10" edge="1">
          <mxGeometry relative="1" as="geometry">
            <mxPoint x="-820" y="533.13" as="sourcePoint" />
            <mxPoint x="-660" y="533.13" as="targetPoint" />
          </mxGeometry>
        </mxCell>
        <mxCell id="tEQJeWXn0lhhpa4tf6Mg-15" value="N" style="resizable=0;html=1;whiteSpace=wrap;align=right;verticalAlign=bottom;" parent="tEQJeWXn0lhhpa4tf6Mg-14" connectable="0" vertex="1">
          <mxGeometry x="1" relative="1" as="geometry">
            <mxPoint x="-5" y="4" as="offset" />
          </mxGeometry>
        </mxCell>
        <mxCell id="tEQJeWXn0lhhpa4tf6Mg-17" value="contem" style="rhombus;whiteSpace=wrap;html=1;" parent="1" vertex="1">
          <mxGeometry x="-801" y="349.37" width="80" height="80" as="geometry" />
        </mxCell>
        <mxCell id="tEQJeWXn0lhhpa4tf6Mg-18" value="Doenca" style="rounded=0;whiteSpace=wrap;html=1;" parent="1" vertex="1">
          <mxGeometry x="-790" y="261.49" width="120" height="60" as="geometry" />
        </mxCell>
        <mxCell id="tEQJeWXn0lhhpa4tf6Mg-19" value="" style="endArrow=none;html=1;rounded=0;exitX=0.5;exitY=0;exitDx=0;exitDy=0;entryX=0.5;entryY=1;entryDx=0;entryDy=0;" parent="1" source="tEQJeWXn0lhhpa4tf6Mg-17" target="tEQJeWXn0lhhpa4tf6Mg-18" edge="1">
          <mxGeometry relative="1" as="geometry">
            <mxPoint x="-1100" y="201.49" as="sourcePoint" />
            <mxPoint x="-940" y="201.49" as="targetPoint" />
          </mxGeometry>
        </mxCell>
        <mxCell id="tEQJeWXn0lhhpa4tf6Mg-20" value="N" style="resizable=0;html=1;whiteSpace=wrap;align=right;verticalAlign=bottom;" parent="tEQJeWXn0lhhpa4tf6Mg-19" connectable="0" vertex="1">
          <mxGeometry x="1" relative="1" as="geometry">
            <mxPoint x="-40" y="30" as="offset" />
          </mxGeometry>
        </mxCell>
        <mxCell id="tEQJeWXn0lhhpa4tf6Mg-21" value="" style="endArrow=none;html=1;rounded=0;exitX=0.5;exitY=0;exitDx=0;exitDy=0;entryX=0;entryY=0.5;entryDx=0;entryDy=0;" parent="1" source="MonJqRNqbHhOGK0CBUrv-29" target="tEQJeWXn0lhhpa4tf6Mg-17" edge="1">
          <mxGeometry relative="1" as="geometry">
            <mxPoint x="-1130" y="157.88" as="sourcePoint" />
            <mxPoint x="-970" y="157.88" as="targetPoint" />
            <Array as="points" />
          </mxGeometry>
        </mxCell>
        <mxCell id="tEQJeWXn0lhhpa4tf6Mg-22" value="N" style="resizable=0;html=1;whiteSpace=wrap;align=right;verticalAlign=bottom;" parent="tEQJeWXn0lhhpa4tf6Mg-21" connectable="0" vertex="1">
          <mxGeometry x="1" relative="1" as="geometry">
            <mxPoint y="19" as="offset" />
          </mxGeometry>
        </mxCell>
        <mxCell id="tEQJeWXn0lhhpa4tf6Mg-24" style="edgeStyle=orthogonalEdgeStyle;rounded=0;orthogonalLoop=1;jettySize=auto;html=1;exitX=1;exitY=0.5;exitDx=0;exitDy=0;entryX=0;entryY=0.5;entryDx=0;entryDy=0;endArrow=none;endFill=0;" parent="1" source="tEQJeWXn0lhhpa4tf6Mg-23" target="tEQJeWXn0lhhpa4tf6Mg-1" edge="1">
          <mxGeometry relative="1" as="geometry" />
        </mxCell>
        <mxCell id="tEQJeWXn0lhhpa4tf6Mg-23" value="Idvacina" style="ellipse;whiteSpace=wrap;html=1;fontStyle=4" parent="1" vertex="1">
          <mxGeometry x="-1135" y="716" width="100" height="37" as="geometry" />
        </mxCell>
        <mxCell id="tEQJeWXn0lhhpa4tf6Mg-26" style="edgeStyle=orthogonalEdgeStyle;rounded=0;orthogonalLoop=1;jettySize=auto;html=1;endArrow=none;endFill=0;" parent="1" source="tEQJeWXn0lhhpa4tf6Mg-25" target="tEQJeWXn0lhhpa4tf6Mg-18" edge="1">
          <mxGeometry relative="1" as="geometry" />
        </mxCell>
        <mxCell id="tEQJeWXn0lhhpa4tf6Mg-25" value="nome" style="ellipse;whiteSpace=wrap;html=1;align=center;" parent="1" vertex="1">
          <mxGeometry x="-900" y="211.49" width="100" height="40" as="geometry" />
        </mxCell>
        <mxCell id="tEQJeWXn0lhhpa4tf6Mg-28" style="edgeStyle=orthogonalEdgeStyle;rounded=0;orthogonalLoop=1;jettySize=auto;html=1;entryX=0.5;entryY=0;entryDx=0;entryDy=0;endArrow=none;endFill=0;" parent="1" source="tEQJeWXn0lhhpa4tf6Mg-27" target="tEQJeWXn0lhhpa4tf6Mg-18" edge="1">
          <mxGeometry relative="1" as="geometry" />
        </mxCell>
        <mxCell id="tEQJeWXn0lhhpa4tf6Mg-27" value="descricao" style="ellipse;whiteSpace=wrap;html=1;align=center;" parent="1" vertex="1">
          <mxGeometry x="-780" y="166.49" width="100" height="40" as="geometry" />
        </mxCell>
        <mxCell id="tEQJeWXn0lhhpa4tf6Mg-31" style="edgeStyle=orthogonalEdgeStyle;rounded=0;orthogonalLoop=1;jettySize=auto;html=1;exitX=0;exitY=0.5;exitDx=0;exitDy=0;entryX=0.5;entryY=0;entryDx=0;entryDy=0;endArrow=none;endFill=0;" parent="1" source="tEQJeWXn0lhhpa4tf6Mg-30" target="tEQJeWXn0lhhpa4tf6Mg-18" edge="1">
          <mxGeometry relative="1" as="geometry" />
        </mxCell>
        <mxCell id="tEQJeWXn0lhhpa4tf6Mg-30" value="Iddoenca" style="ellipse;whiteSpace=wrap;html=1;align=center;fontStyle=4" parent="1" vertex="1">
          <mxGeometry x="-660" y="211.49" width="100" height="40" as="geometry" />
        </mxCell>
        <mxCell id="tEQJeWXn0lhhpa4tf6Mg-32" style="edgeStyle=orthogonalEdgeStyle;rounded=0;orthogonalLoop=1;jettySize=auto;html=1;exitX=0.5;exitY=1;exitDx=0;exitDy=0;" parent="1" source="tEQJeWXn0lhhpa4tf6Mg-2" target="tEQJeWXn0lhhpa4tf6Mg-2" edge="1">
          <mxGeometry relative="1" as="geometry" />
        </mxCell>
        <mxCell id="tEQJeWXn0lhhpa4tf6Mg-38" style="edgeStyle=orthogonalEdgeStyle;rounded=0;orthogonalLoop=1;jettySize=auto;html=1;exitX=1;exitY=0.5;exitDx=0;exitDy=0;entryX=0;entryY=0.5;entryDx=0;entryDy=0;endArrow=none;endFill=0;" parent="1" source="tEQJeWXn0lhhpa4tf6Mg-37" target="tEQJeWXn0lhhpa4tf6Mg-1" edge="1">
          <mxGeometry relative="1" as="geometry" />
        </mxCell>
        <mxCell id="tEQJeWXn0lhhpa4tf6Mg-37" value="data" style="ellipse;whiteSpace=wrap;html=1;" parent="1" vertex="1">
          <mxGeometry x="-1135" y="660.5" width="100" height="37" as="geometry" />
        </mxCell>
        <mxCell id="4X3p8QuVSUvE6NKFFiFt-1" value="envia" style="rhombus;whiteSpace=wrap;html=1;" parent="1" vertex="1">
          <mxGeometry x="-175" y="155" width="80" height="80" as="geometry" />
        </mxCell>
        <mxCell id="4X3p8QuVSUvE6NKFFiFt-4" value="" style="endArrow=none;html=1;rounded=0;exitX=0.5;exitY=0;exitDx=0;exitDy=0;entryX=0;entryY=0.5;entryDx=0;entryDy=0;" parent="1" source="MonJqRNqbHhOGK0CBUrv-2" target="4X3p8QuVSUvE6NKFFiFt-1" edge="1">
          <mxGeometry relative="1" as="geometry">
            <mxPoint x="-342" y="194.38" as="sourcePoint" />
            <mxPoint x="-182" y="194.38" as="targetPoint" />
            <Array as="points">
              <mxPoint x="-247" y="195" />
            </Array>
          </mxGeometry>
        </mxCell>
        <mxCell id="4X3p8QuVSUvE6NKFFiFt-5" value="1" style="resizable=0;html=1;whiteSpace=wrap;align=right;verticalAlign=bottom;" parent="4X3p8QuVSUvE6NKFFiFt-4" connectable="0" vertex="1">
          <mxGeometry x="1" relative="1" as="geometry" />
        </mxCell>
        <mxCell id="4X3p8QuVSUvE6NKFFiFt-11" value="" style="endArrow=none;html=1;rounded=0;exitX=1;exitY=0;exitDx=0;exitDy=0;entryX=0.5;entryY=1;entryDx=0;entryDy=0;" parent="1" target="4X3p8QuVSUvE6NKFFiFt-1" edge="1">
          <mxGeometry relative="1" as="geometry">
            <mxPoint x="-210" y="255" as="sourcePoint" />
            <mxPoint x="80" y="210" as="targetPoint" />
            <Array as="points">
              <mxPoint x="-135" y="255" />
            </Array>
          </mxGeometry>
        </mxCell>
        <mxCell id="4X3p8QuVSUvE6NKFFiFt-12" value="1" style="resizable=0;html=1;whiteSpace=wrap;align=right;verticalAlign=bottom;" parent="4X3p8QuVSUvE6NKFFiFt-11" connectable="0" vertex="1">
          <mxGeometry x="1" relative="1" as="geometry">
            <mxPoint x="-10" y="20" as="offset" />
          </mxGeometry>
        </mxCell>
        <mxCell id="4X3p8QuVSUvE6NKFFiFt-13" style="edgeStyle=orthogonalEdgeStyle;rounded=0;orthogonalLoop=1;jettySize=auto;html=1;exitX=0.5;exitY=1;exitDx=0;exitDy=0;" parent="1" source="MonJqRNqbHhOGK0CBUrv-201" target="MonJqRNqbHhOGK0CBUrv-201" edge="1">
          <mxGeometry relative="1" as="geometry" />
        </mxCell>
        <mxCell id="4X3p8QuVSUvE6NKFFiFt-17" style="edgeStyle=orthogonalEdgeStyle;rounded=0;orthogonalLoop=1;jettySize=auto;html=1;entryX=0;entryY=0.5;entryDx=0;entryDy=0;endArrow=none;endFill=0;" parent="1" source="4X3p8QuVSUvE6NKFFiFt-16" target="MonJqRNqbHhOGK0CBUrv-2" edge="1">
          <mxGeometry relative="1" as="geometry" />
        </mxCell>
        <mxCell id="4X3p8QuVSUvE6NKFFiFt-16" value="nome" style="ellipse;whiteSpace=wrap;html=1;" parent="1" vertex="1">
          <mxGeometry x="-542" y="140" width="80" height="30" as="geometry" />
        </mxCell>
        <mxCell id="4X3p8QuVSUvE6NKFFiFt-30" style="edgeStyle=orthogonalEdgeStyle;rounded=0;orthogonalLoop=1;jettySize=auto;html=1;exitX=0;exitY=0.5;exitDx=0;exitDy=0;entryX=0.5;entryY=0;entryDx=0;entryDy=0;endArrow=none;endFill=0;" parent="1" source="4X3p8QuVSUvE6NKFFiFt-26" target="4X3p8QuVSUvE6NKFFiFt-1" edge="1">
          <mxGeometry relative="1" as="geometry" />
        </mxCell>
        <mxCell id="4X3p8QuVSUvE6NKFFiFt-26" value="mensagem" style="ellipse;whiteSpace=wrap;html=1;align=center;" parent="1" vertex="1">
          <mxGeometry x="-55" y="100" width="100" height="40" as="geometry" />
        </mxCell>
        <mxCell id="4X3p8QuVSUvE6NKFFiFt-29" style="edgeStyle=orthogonalEdgeStyle;rounded=0;orthogonalLoop=1;jettySize=auto;html=1;endArrow=none;endFill=0;" parent="1" source="4X3p8QuVSUvE6NKFFiFt-28" target="4X3p8QuVSUvE6NKFFiFt-1" edge="1">
          <mxGeometry relative="1" as="geometry" />
        </mxCell>
        <mxCell id="4X3p8QuVSUvE6NKFFiFt-28" value="data" style="ellipse;whiteSpace=wrap;html=1;align=center;" parent="1" vertex="1">
          <mxGeometry x="-45" y="155" width="100" height="40" as="geometry" />
        </mxCell>
        <mxCell id="9aSvV8CmTxXtGBdBaeeX-6" style="edgeStyle=orthogonalEdgeStyle;rounded=0;orthogonalLoop=1;jettySize=auto;html=1;entryX=0.869;entryY=1.002;entryDx=0;entryDy=0;entryPerimeter=0;endArrow=none;endFill=0;" edge="1" parent="1" source="MonJqRNqbHhOGK0CBUrv-266" target="MonJqRNqbHhOGK0CBUrv-44">
          <mxGeometry relative="1" as="geometry" />
        </mxCell>
        <mxCell id="9aSvV8CmTxXtGBdBaeeX-7" style="edgeStyle=orthogonalEdgeStyle;rounded=0;orthogonalLoop=1;jettySize=auto;html=1;entryX=0.38;entryY=0.983;entryDx=0;entryDy=0;entryPerimeter=0;endArrow=none;endFill=0;" edge="1" parent="1" source="774Z3FmDkCT8_oQ44oAT-31" target="MonJqRNqbHhOGK0CBUrv-44">
          <mxGeometry relative="1" as="geometry">
            <Array as="points">
              <mxPoint x="-440" y="969.5" />
            </Array>
          </mxGeometry>
        </mxCell>
      </root>
    </mxGraphModel>
  </diagram>
</mxfile>
